<?xml version="1.0" encoding="UTF-8"?>
<svg id="Calque_1" xmlns="http://www.w3.org/2000/svg" version="1.1" viewBox="0 0 200 67.28">
  <!-- Generator: Adobe Illustrator 30.4.0, SVG Export Plug-In . SVG Version: 2.1.4 Build 226)  -->
  <defs>
    <style>
      .st0 {
        fill: #f2cb57;
      }

      .st1 {
        fill: #274259;
      }
    </style>
  </defs>
  <path class="st0" d="M26.76,35.34l.11-2.69c-20.74.97-26.87,1.34-26.87,1.34l26.76,1.34ZM10.9,32.5l15.98.15.2-.71-16.18.56Z"/>
  <g>
    <path class="st0" d="M31.78,26.84l2.69.11C33.49,6.21,33.12.07,33.12.07l-1.34,26.76ZM34.61,10.97l-.15,15.98.71.2-.56-16.18Z"/>
    <path class="st0" d="M40.54,31.94l-.11,2.69c20.74-.97,26.87-1.34,26.87-1.34l-26.76-1.34ZM56.4,34.78l-15.98-.15-.2.71,16.18-.56Z"/>
    <path class="st0" d="M35.17,40.46l-2.69-.11c.97,20.74,1.34,26.87,1.34,26.87l1.34-26.76ZM32.33,56.33l.15-15.98-.71-.2.56,16.18Z"/>
    <path class="st1" d="M65.56.3c-1.42-.63-4.34.2-5.82.66-9.3,2.83-16.64,9.87-21.45,18.11-1.6,2.74-2.89,5.64-4.17,8.53,0,0,.63.2,1.15.53-.08-.05-.12-.09-.13-.1-.04-.06-.05-.09-.04-.17.02-.15.42-.87.53-1.08,4.93-10.07,12.34-19.97,22.99-24.43,2.39-1,7.44-3.1,7.97.98h0s-.56-.77-.56-.77c-1.18-1-3.46.12-4.66.68-6.4,3.02-13.02,9.57-16.81,15.49-2.4,3.74-4.07,7.9-6.39,11.69l1.21,1.27c11.4-3.49,21.44-11.4,26.24-22.44,1.03-2.36,3.28-7.48-.04-8.96ZM32.2,39.25c.04.06.05.09.04.17-.02.15-.42.87-.53,1.08-4.93,10.07-12.34,19.97-22.99,24.43-2.39,1-7.44,3.1-7.97-.98h0s.56.77.56.77c1.18,1,3.46-.12,4.66-.68,6.4-3.02,13.02-9.57,16.81-15.49,2.4-3.74,4.07-7.9,6.39-11.69l-1.21-1.27c-11.4,3.49-21.44,11.4-26.24,22.44-1.03,2.36-3.28,7.48.04,8.96,1.42.63,4.34-.2,5.82-.66,9.3-2.83,16.64-9.87,21.45-18.11,1.6-2.74,2.89-5.64,4.17-8.53,0,0-.63-.2-1.15-.53.08.05.12.09.13.1Z"/>
    <path class="st1" d="M67,65.53c.63-1.42-.2-4.34-.66-5.82-2.83-9.3-9.87-16.64-18.11-21.45-2.74-1.6-5.64-2.89-8.53-4.17,0,0-.2.63-.53,1.15.05-.08.09-.12.1-.13.06-.04.09-.05.17-.04.15.02.87.42,1.08.53,10.07,4.93,19.97,12.34,24.43,22.99,1,2.39,3.1,7.44-.98,7.97h0s.77-.56.77-.56c1-1.18-.12-3.46-.68-4.66-3.02-6.4-9.57-13.02-15.49-16.81-3.74-2.4-7.9-4.07-11.69-6.39l-1.27,1.21c3.49,11.4,11.4,21.44,22.44,26.24,2.36,1.03,7.48,3.28,8.96-.04ZM28.05,32.17c-.06.04-.09.05-.17.04-.15-.02-.87-.42-1.08-.53C16.74,26.76,6.84,19.35,2.38,8.7,1.38,6.3-.71,1.26,3.36.73h0s-.77.56-.77.56c-1,1.18.12,3.46.68,4.66,3.02,6.4,9.57,13.02,15.49,16.81,3.74,2.4,7.9,4.07,11.69,6.39l1.27-1.21C28.23,16.54,20.33,6.5,9.29,1.7,6.92.68,1.8-1.58.33,1.75c-.63,1.42.2,4.34.66,5.82,2.83,9.3,9.87,16.64,18.11,21.45,2.74,1.6,5.64,2.89,8.53,4.17,0,0,.2-.63.53-1.15-.05.08-.09.12-.1.13Z"/>
    <path class="st0" d="M40.86,32.93c-.39-3.97-3.93-6.88-7.9-6.49-3.97.39-6.88,3.93-6.49,7.9.39,3.97,3.93,6.88,7.9,6.49,3.97-.39,6.88-3.93,6.49-7.9ZM37.46,36.76c-.83,1.01-2.01,1.64-3.32,1.77-.16.02-.33.02-.49.02-2.53,0-4.63-1.91-4.88-4.43-.26-2.7,1.71-5.1,4.41-5.37.16-.02.33-.02.49-.02,2.53,0,4.63,1.9,4.88,4.43.13,1.31-.26,2.58-1.09,3.6Z"/>
    <g>
      <path class="st1" d="M79.6,11.48h2.27l4.91,6.55c.83,1.11,1.64,2.23,2.46,3.36h.04c-.02-1.27-.04-2.63-.04-3.95v-5.97h2.32v13.68h-2.27l-4.91-6.55c-.83-1.11-1.66-2.23-2.48-3.36h-.04c.02,1.27.04,2.61.04,3.93v5.99h-2.3v-13.68h0Z"/>
      <path class="st1" d="M98.55,11.48h2.44l5.54,13.68h-2.57l-1.32-3.34h-5.84l-1.32,3.34h-2.46l5.54-13.68h0ZM101.88,19.85l-.72-1.89c-.45-1.21-1-2.72-1.38-3.8h-.04c-.4,1.11-.94,2.57-1.44,3.82l-.74,1.87h4.31Z"/>
      <path class="st1" d="M109.92,11.48v7.67c0,1.04.13,2.02.7,2.78.57.77,1.45,1.25,2.68,1.25s2.12-.47,2.68-1.25c.57-.76.7-1.74.7-2.78v-7.67h2.32v7.82c0,1.47-.28,2.98-1.25,4.16-.96,1.17-2.53,1.91-4.5,1.91s-3.53-.72-4.5-1.91c-.98-1.17-1.25-2.66-1.25-4.16v-7.82h2.4Z"/>
      <path class="st1" d="M125.09,13.6h-4.5v-2.12h11.41v2.12h-4.52v11.56h-2.4v-11.56h0Z"/>
      <path class="st1" d="M133.73,11.48h2.4v13.68h-2.4v-13.68h0Z"/>
      <path class="st1" d="M145.52,25.37c-4.29,0-7.31-3.02-7.31-7.01s2.98-7.08,7.31-7.08c1.45,0,2.82.34,3.89.96v2.46c-1.04-.76-2.42-1.25-3.83-1.25-2.91,0-4.95,2.1-4.95,4.86s2,4.89,5.06,4.89c1.44,0,2.78-.49,3.83-1.29v2.44c-1.11.68-2.59,1.02-4.01,1.02h0Z"/>
      <path class="st1" d="M79.6,30.25h8.16v2.12h-5.76v3.46h5.01v2.06h-5.01v3.91h5.95v2.13h-8.35v-13.68h0Z"/>
      <path class="st1" d="M93.6,36.83l-4.53-6.57h2.83l1.79,2.63c.51.76,1.02,1.51,1.49,2.27h.04c.47-.76,1-1.55,1.47-2.25l1.79-2.64h2.68l-4.52,6.57,4.91,7.1h-2.85l-2.15-3.16c-.51-.76-1.02-1.51-1.49-2.25h-.04c-.47.74-.96,1.49-1.47,2.23l-2.15,3.17h-2.72l4.91-7.1h0Z"/>
      <path class="st1" d="M102.91,30.25h4.63c1.55,0,2.7.23,3.68.93s1.64,1.89,1.64,3.38-.66,2.68-1.64,3.38c-.98.72-2.13.96-3.68.96h-2.23v5.02h-2.4v-13.68ZM107.47,36.83c.94,0,1.61-.11,2.13-.47s.87-1,.87-1.76-.34-1.44-.87-1.79c-.53-.36-1.19-.45-2.13-.45h-2.15v4.48h2.15Z"/>
      <path class="st1" d="M114.84,30.25h8.16v2.12h-5.76v3.46h5.01v2.06h-5.01v3.91h5.95v2.13h-8.35v-13.68h0Z"/>
      <path class="st1" d="M125.34,30.25h4.74c1.45,0,2.55.21,3.48.87.93.64,1.57,1.76,1.57,3.21,0,1.85-1.1,3.27-2.91,3.8l3.97,5.8h-2.78l-3.72-5.48h-1.95v5.48h-2.4v-13.68h0ZM130,36.47c.83,0,1.44-.09,1.93-.43.51-.34.79-.93.79-1.61,0-.74-.3-1.32-.79-1.66s-1.1-.42-1.95-.42h-2.25v4.12h2.27Z"/>
      <path class="st1" d="M137.62,30.25h2.4v13.68h-2.4v-13.68Z"/>
      <path class="st1" d="M142.79,30.25h8.16v2.12h-5.76v3.46h5.01v2.06h-5.01v3.91h5.95v2.13h-8.35v-13.68h0Z"/>
      <path class="st1" d="M153.3,30.25h2.27l4.91,6.55c.83,1.11,1.64,2.23,2.46,3.36h.04c-.02-1.27-.04-2.63-.04-3.95v-5.97h2.32v13.68h-2.27l-4.91-6.55c-.83-1.11-1.66-2.23-2.48-3.36h-.04c.02,1.27.04,2.61.04,3.93v5.99h-2.3v-13.68Z"/>
      <path class="st1" d="M174.65,44.14c-4.29,0-7.31-3.02-7.31-7.01s2.98-7.08,7.31-7.08c1.45,0,2.82.34,3.89.96v2.46c-1.04-.76-2.42-1.25-3.83-1.25-2.91,0-4.95,2.1-4.95,4.86s2,4.89,5.06,4.89c1.44,0,2.78-.49,3.83-1.29v2.44c-1.11.68-2.59,1.02-4.01,1.02Z"/>
      <path class="st1" d="M180.79,30.25h8.16v2.12h-5.76v3.46h5.01v2.06h-5.01v3.91h5.95v2.13h-8.35v-13.68h0Z"/>
      <path class="st1" d="M195.2,42c1.47,0,2.4-.62,2.4-1.81,0-.76-.36-1.23-1.27-1.63s-2.64-.72-3.8-1.34c-1.17-.62-1.85-1.61-1.85-3.17,0-2.51,1.85-4.01,4.63-4.01,1.3,0,2.89.34,4.02.96v2.4c-1.34-.87-2.91-1.25-3.99-1.25-1.36,0-2.27.59-2.27,1.68,0,.81.43,1.25,1.34,1.63.93.38,2.7.68,3.85,1.36,1.15.66,1.72,1.74,1.72,3.16,0,2.61-1.91,4.16-4.74,4.16-1.42,0-3.14-.4-4.4-1.13v-2.48c1.42,1.04,3.21,1.47,4.35,1.47h0Z"/>
    </g>
    <g>
      <path class="st0" d="M79.6,49.07h1.37l1.35,3.62c.24.64.47,1.28.7,1.94h.02c.24-.66.48-1.3.73-1.96l1.37-3.6h1.3l-2.77,7.23h-1.29l-2.78-7.23Z"/>
      <path class="st0" d="M86.55,53.84c0-1.46,1.14-2.58,2.67-2.58s2.67,1.12,2.67,2.58-1.14,2.58-2.67,2.58-2.67-1.13-2.67-2.58ZM90.68,53.84c0-.85-.63-1.52-1.46-1.52s-1.46.67-1.46,1.52.62,1.51,1.46,1.51,1.46-.66,1.46-1.51Z"/>
      <path class="st0" d="M93,51.37h.87v-1.27l1.21-.29v1.56h1.4v1.04h-1.4v2.09c0,.58.24.88.73.88.24,0,.48-.07.67-.15v1c-.23.11-.6.19-.98.19-1.1,0-1.63-.65-1.63-1.8v-2.21h-.87v-1.04Z"/>
      <path class="st0" d="M97.99,51.37h1.2v.69h.02c.34-.47.85-.74,1.44-.74.1,0,.21.01.32.04v1.16c-.12-.03-.25-.05-.38-.05-.6,0-1.05.25-1.39.73v3.11h-1.21v-4.93Z"/>
      <path class="st0" d="M104.65,56.41c-1.6,0-2.73-1-2.73-2.57s1.14-2.59,2.5-2.59c1.23,0,2.31.81,2.31,2.43,0,.16-.01.37-.03.49h-3.56c.14.82.79,1.23,1.64,1.23.6,0,1.18-.21,1.68-.54v1.1c-.46.28-1.17.45-1.81.45ZM105.6,53.34c-.08-.79-.64-1.1-1.19-1.1-.58,0-1.13.37-1.26,1.1h2.45Z"/>
      <path class="st0" d="M113.68,56.41c-1.6,0-2.73-1-2.73-2.57s1.14-2.59,2.5-2.59c1.23,0,2.31.81,2.31,2.43,0,.16-.01.37-.03.49h-3.56c.14.82.79,1.23,1.64,1.23.6,0,1.18-.21,1.68-.54v1.1c-.46.28-1.17.45-1.81.45ZM114.63,53.34c-.08-.79-.64-1.1-1.19-1.1-.58,0-1.13.37-1.26,1.1h2.45ZM112.88,50.68l.8-1.64h1.21l-1.15,1.64h-.86Z"/>
      <path class="st0" d="M120.79,56.01h-.02c-.35.25-.79.4-1.29.4-1.32,0-2.37-1-2.37-2.52s1.08-2.64,2.63-2.64c.51,0,.97.13,1.38.35l.88-.21v7.1h-1.21v-2.49ZM119.79,52.3c-.93,0-1.46.7-1.46,1.57s.52,1.54,1.41,1.54c.43,0,.8-.16,1.05-.37v-2.47c-.27-.16-.62-.27-1-.27Z"/>
      <path class="st0" d="M127.27,55.86h-.02c-.42.34-.97.55-1.57.55-.55,0-1-.17-1.33-.52-.32-.36-.44-.77-.44-1.46v-3.07h1.21v2.87c0,.42.07.68.24.86.17.18.43.26.72.26.44,0,.86-.21,1.18-.47v-3.52h1.21v4.93h-1.2v-.44Z"/>
      <path class="st0" d="M130.25,49.76c0-.41.34-.75.76-.75s.75.34.75.75-.34.75-.75.75-.76-.33-.76-.75ZM130.4,51.37h1.21v4.93h-1.21v-4.93Z"/>
      <path class="st0" d="M133.53,51.37h1.19v.32h.02c.35-.25.81-.43,1.35-.43,1.28,0,2.34,1,2.34,2.52s-1.1,2.64-2.56,2.64c-.43,0-.8-.1-1.11-.26h-.02v2.35h-1.21v-7.13ZM135.74,55.39c.93,0,1.47-.67,1.47-1.56s-.53-1.54-1.41-1.54c-.43,0-.8.17-1.06.39v2.43c.26.16.62.28,1,.28Z"/>
      <path class="st0" d="M139.89,49.76c0-.41.34-.75.76-.75s.75.34.75.75-.34.75-.75.75-.76-.33-.76-.75ZM140.04,51.37h1.21v4.93h-1.21v-4.93Z"/>
      <path class="st0" d="M145.58,56.41c-1.6,0-2.73-1-2.73-2.57s1.14-2.59,2.5-2.59c1.23,0,2.31.81,2.31,2.43,0,.16-.01.37-.03.49h-3.56c.14.82.79,1.23,1.64,1.23.6,0,1.18-.21,1.68-.54v1.1c-.46.28-1.17.45-1.81.45ZM146.53,53.34c-.08-.79-.64-1.1-1.19-1.1-.58,0-1.13.37-1.26,1.1h2.45Z"/>
      <path class="st0" d="M149.3,51.37h1.2v.69h.02c.34-.47.85-.74,1.44-.74.1,0,.21.01.32.04v1.16c-.12-.03-.25-.05-.38-.05-.6,0-1.05.25-1.39.73v3.11h-1.21v-4.93Z"/>
      <path class="st0" d="M158.95,56.41c-1.61,0-2.72-1.08-2.72-2.57s1.18-2.59,2.75-2.59c.53,0,1.05.12,1.44.36v1.13c-.38-.26-.85-.44-1.35-.44-.97,0-1.62.64-1.62,1.53s.66,1.52,1.63,1.52c.52,0,1.04-.18,1.38-.45v1.13c-.4.26-.97.38-1.51.38Z"/>
      <path class="st0" d="M162.14,51.37h1.2v.69h.02c.34-.47.85-.74,1.44-.74.1,0,.21.01.32.04v1.16c-.12-.03-.25-.05-.38-.05-.6,0-1.05.25-1.39.73v3.11h-1.21v-4.93Z"/>
      <path class="st0" d="M166.08,53.84c0-1.46,1.14-2.58,2.67-2.58s2.67,1.12,2.67,2.58-1.14,2.58-2.67,2.58-2.67-1.13-2.67-2.58ZM170.2,53.84c0-.85-.63-1.52-1.46-1.52s-1.46.67-1.46,1.52.62,1.51,1.46,1.51,1.46-.66,1.46-1.51Z"/>
      <path class="st0" d="M172.86,49.76c0-.41.34-.75.76-.75s.75.34.75.75-.34.75-.75.75-.76-.33-.76-.75ZM173.01,51.37h1.21v4.93h-1.21v-4.93Z"/>
      <path class="st0" d="M175.95,55.97v-1.12c.62.4,1.42.57,1.98.57s.9-.16.9-.51c0-.25-.15-.38-.57-.48-.42-.1-1.19-.21-1.66-.43-.48-.22-.71-.6-.71-1.17,0-1.04.85-1.58,2.04-1.58.61,0,1.33.14,1.82.39v1.06c-.6-.32-1.3-.47-1.8-.47s-.85.15-.85.49c0,.26.19.38.62.48.43.09,1.15.19,1.61.4.47.22.71.59.71,1.2,0,1.1-.96,1.61-2.13,1.61-.63,0-1.41-.13-1.96-.44Z"/>
      <path class="st0" d="M181.47,49.76c0-.41.34-.75.76-.75s.75.34.75.75-.34.75-.75.75-.76-.33-.76-.75ZM181.62,51.37h1.21v4.93h-1.21v-4.93Z"/>
      <path class="st0" d="M187.16,56.41c-1.6,0-2.73-1-2.73-2.57s1.14-2.59,2.5-2.59c1.23,0,2.31.81,2.31,2.43,0,.16-.01.37-.03.49h-3.56c.14.82.79,1.23,1.64,1.23.6,0,1.18-.21,1.68-.54v1.1c-.46.28-1.17.45-1.81.45ZM185.4,49.04h1.2l.81,1.64h-.86l-1.15-1.64ZM188.11,53.34c-.08-.79-.64-1.1-1.19-1.1-.58,0-1.13.37-1.26,1.1h2.45Z"/>
      <path class="st0" d="M190.88,51.37h1.2v.69h.02c.34-.47.85-.74,1.44-.74.1,0,.21.01.32.04v1.16c-.12-.03-.25-.05-.38-.05-.6,0-1.05.25-1.39.73v3.11h-1.21v-4.93Z"/>
      <path class="st0" d="M197.54,56.41c-1.6,0-2.73-1-2.73-2.57s1.14-2.59,2.5-2.59c1.23,0,2.31.81,2.31,2.43,0,.16-.01.37-.03.49h-3.56c.14.82.79,1.23,1.64,1.23.6,0,1.18-.21,1.68-.54v1.1c-.46.28-1.17.45-1.81.45ZM198.49,53.34c-.08-.79-.64-1.1-1.19-1.1-.58,0-1.13.37-1.26,1.1h2.45Z"/>
    </g>
  </g>
</svg>