<?xml version="1.0" encoding="UTF-8"?>
<svg id="Calque_1" xmlns="http://www.w3.org/2000/svg" version="1.1" viewBox="0 0 400 134.55">
  <!-- Generator: Adobe Illustrator 29.2.0, SVG Export Plug-In . SVG Version: 2.1.0 Build 108)  -->
  <defs>
    <style>
      .st0 {
        fill: #fff;
      }
    </style>
  </defs>
  <path class="st0" d="M53.53,70.67l.22-5.37c-41.49,1.95-53.75,2.69-53.75,2.69l53.53,2.69ZM21.8,65l31.95.3.41-1.42-32.36,1.12Z"/>
  <g>
    <path class="st0" d="M63.55,53.68l5.37.22C66.98,12.41,66.24.15,66.24.15l-2.69,53.53ZM69.22,21.95l-.3,31.95,1.42.41-1.12-32.36Z"/>
    <path class="st0" d="M81.08,63.88l-.22,5.37c41.49-1.95,53.75-2.69,53.75-2.69l-53.53-2.69ZM112.81,69.55l-31.95-.3-.41,1.42,32.36-1.12Z"/>
    <path class="st0" d="M70.34,80.92l-5.37-.22c1.95,41.49,2.69,53.75,2.69,53.75l2.69-53.53ZM64.67,112.65l.3-31.95-1.42-.41,1.12,32.36Z"/>
    <path class="st0" d="M131.11.6c-2.84-1.26-8.68.41-11.65,1.31-18.61,5.66-33.28,19.74-42.9,36.22-3.2,5.47-5.77,11.27-8.35,17.06,0,0,1.26.39,2.31,1.06-.15-.1-.25-.18-.27-.2-.08-.12-.1-.19-.08-.33.04-.29.85-1.73,1.05-2.15,9.85-20.14,24.67-39.94,45.98-48.86,4.79-2,14.87-6.2,15.94,1.96h0s-1.12-1.55-1.12-1.55c-2.35-2-6.92.23-9.32,1.37-12.79,6.05-26.03,19.15-33.63,30.99-4.8,7.48-8.14,15.8-12.79,23.37l2.43,2.54c22.81-6.99,42.88-22.8,52.48-44.88,2.05-4.73,6.56-14.97-.09-17.92ZM64.4,78.5c.08.12.1.19.08.33-.04.29-.85,1.73-1.05,2.15-9.85,20.14-24.67,39.94-45.98,48.86-4.79,2-14.87,6.2-15.94-1.96h0s1.12,1.55,1.12,1.55c2.35,2,6.92-.23,9.32-1.37,12.79-6.05,26.03-19.15,33.63-30.99,4.8-7.48,8.14-15.8,12.79-23.37l-2.43-2.54c-22.81,6.99-42.88,22.8-52.48,44.88-2.05,4.73-6.56,14.97.09,17.92,2.84,1.26,8.68-.41,11.65-1.31,18.61-5.66,33.28-19.74,42.9-36.22,3.2-5.47,5.77-11.27,8.35-17.06,0,0-1.26-.39-2.31-1.06.15.1.25.18.27.2Z"/>
    <path class="st0" d="M134.01,131.06c1.26-2.84-.41-8.68-1.31-11.65-5.66-18.61-19.74-33.28-36.22-42.9-5.47-3.2-11.27-5.77-17.06-8.35,0,0-.39,1.26-1.06,2.31.1-.15.18-.25.2-.27.12-.08.19-.1.33-.08.29.04,1.73.85,2.15,1.05,20.14,9.85,39.94,24.67,48.86,45.98,2,4.79,6.2,14.87-1.96,15.94h0s1.55-1.12,1.55-1.12c2-2.35-.23-6.92-1.37-9.32-6.05-12.79-19.15-26.03-30.99-33.63-7.48-4.8-15.8-8.14-23.37-12.79l-2.54,2.43c6.99,22.81,22.8,42.88,44.88,52.48,4.73,2.05,14.97,6.56,17.92-.09ZM56.11,64.35c-.12.08-.19.1-.33.08-.29-.04-1.73-.85-2.15-1.05C33.49,53.52,13.68,38.7,4.77,17.39,2.76,12.61-1.43,2.52,6.73,1.45h0s-1.55,1.12-1.55,1.12c-2,2.35.23,6.92,1.37,9.32,6.05,12.79,19.15,26.03,30.99,33.63,7.48,4.8,15.8,8.14,23.37,12.79l2.54-2.43C56.47,33.08,40.66,13.01,18.57,3.41,13.85,1.35,3.6-3.15.66,3.5c-1.26,2.84.41,8.68,1.31,11.65,5.66,18.61,19.74,33.28,36.22,42.9,5.47,3.2,11.27,5.77,17.06,8.35,0,0,.39-1.26,1.06-2.31-.1.15-.18.25-.2.27Z"/>
    <path class="st0" d="M81.72,65.86c-.78-7.94-7.85-13.75-15.8-12.97-7.94.78-13.75,7.85-12.97,15.8.78,7.95,7.86,13.76,15.8,12.97,7.95-.78,13.76-7.85,12.97-15.8ZM74.92,73.51c-1.66,2.03-4.02,3.29-6.63,3.54-.33.03-.66.05-.98.05-5.07,0-9.26-3.81-9.76-8.87-.53-5.39,3.43-10.21,8.82-10.73.33-.03.66-.05.98-.05,5.07,0,9.26,3.81,9.76,8.86.26,2.61-.52,5.17-2.19,7.2Z"/>
    <g>
      <path class="st0" d="M159.2,22.97h4.53l9.82,13.11c1.66,2.23,3.29,4.46,4.91,6.72h.08c-.04-2.53-.08-5.25-.08-7.9v-11.94h4.65v27.35h-4.53l-9.82-13.11c-1.66-2.23-3.33-4.46-4.95-6.72h-.08c.04,2.53.08,5.21.08,7.86v11.98h-4.61v-27.35h0Z"/>
      <path class="st0" d="M197.1,22.97h4.88l11.07,27.35h-5.14l-2.65-6.69h-11.67l-2.65,6.69h-4.91l11.07-27.35h0ZM203.75,39.71l-1.44-3.78c-.91-2.42-2-5.44-2.76-7.59h-.08c-.79,2.23-1.89,5.14-2.87,7.63l-1.47,3.74h8.61Z"/>
      <path class="st0" d="M219.85,22.97v15.34c0,2.08.27,4.04,1.4,5.55,1.13,1.55,2.91,2.49,5.36,2.49s4.23-.95,5.36-2.49c1.13-1.51,1.4-3.48,1.4-5.55v-15.34h4.65v15.64c0,2.95-.57,5.97-2.49,8.31-1.93,2.34-5.06,3.82-8.99,3.82s-7.07-1.44-8.99-3.82c-1.96-2.34-2.49-5.33-2.49-8.31v-15.64h4.8Z"/>
      <path class="st0" d="M250.19,27.2h-8.99v-4.23h22.82v4.23h-9.03v23.12h-4.8v-23.12h0Z"/>
      <path class="st0" d="M267.45,22.97h4.8v27.35h-4.8v-27.35h0Z"/>
      <path class="st0" d="M291.03,50.74c-8.58,0-14.62-6.04-14.62-14.02s5.97-14.17,14.62-14.17c2.91,0,5.63.68,7.78,1.93v4.91c-2.08-1.51-4.84-2.49-7.67-2.49-5.82,0-9.9,4.19-9.9,9.71s4.01,9.79,10.13,9.79c2.87,0,5.55-.98,7.67-2.57v4.88c-2.23,1.36-5.18,2.04-8.01,2.04h0Z"/>
      <path class="st0" d="M159.2,60.5h16.32v4.23h-11.52v6.91h10.01v4.12h-10.01v7.82h11.9v4.27h-16.7v-27.35h0Z"/>
      <path class="st0" d="M187.2,73.65l-9.07-13.15h5.67l3.59,5.25c1.02,1.51,2.04,3.02,2.98,4.53h.08c.95-1.51,2-3.1,2.95-4.5l3.59-5.29h5.36l-9.03,13.15,9.82,14.21h-5.71l-4.31-6.31c-1.02-1.51-2.04-3.02-2.98-4.5h-.08c-.95,1.47-1.93,2.98-2.95,4.46l-4.31,6.35h-5.44l9.82-14.21h0Z"/>
      <path class="st0" d="M205.83,60.5h9.26c3.1,0,5.4.45,7.37,1.85,1.96,1.4,3.29,3.78,3.29,6.76s-1.32,5.36-3.29,6.76c-1.96,1.44-4.27,1.93-7.37,1.93h-4.46v10.05h-4.8v-27.35ZM214.94,73.65c1.89,0,3.21-.23,4.27-.95,1.06-.72,1.74-2,1.74-3.51s-.68-2.87-1.74-3.59c-1.06-.72-2.38-.91-4.27-.91h-4.31v8.95h4.31Z"/>
      <path class="st0" d="M229.67,60.5h16.32v4.23h-11.52v6.91h10.01v4.12h-10.01v7.82h11.9v4.27h-16.7v-27.35h0Z"/>
      <path class="st0" d="M250.68,60.5h9.48c2.91,0,5.1.42,6.95,1.74,1.85,1.28,3.14,3.51,3.14,6.42,0,3.7-2.19,6.54-5.82,7.59l7.94,11.6h-5.55l-7.44-10.96h-3.89v10.96h-4.8v-27.35h0ZM260.01,72.94c1.66,0,2.87-.19,3.85-.87,1.02-.68,1.59-1.85,1.59-3.21,0-1.47-.6-2.65-1.59-3.33s-2.19-.83-3.89-.83h-4.5v8.24h4.53Z"/>
      <path class="st0" d="M275.24,60.5h4.8v27.35h-4.8v-27.35Z"/>
      <path class="st0" d="M285.59,60.5h16.32v4.23h-11.52v6.91h10.01v4.12h-10.01v7.82h11.9v4.27h-16.7v-27.35h0Z"/>
      <path class="st0" d="M306.6,60.5h4.53l9.82,13.11c1.66,2.23,3.29,4.46,4.91,6.73h.08c-.04-2.53-.08-5.25-.08-7.9v-11.94h4.65v27.35h-4.53l-9.82-13.11c-1.66-2.23-3.33-4.46-4.95-6.73h-.08c.04,2.53.08,5.21.08,7.86v11.98h-4.61v-27.35Z"/>
      <path class="st0" d="M349.29,88.28c-8.58,0-14.62-6.04-14.62-14.02s5.97-14.17,14.62-14.17c2.91,0,5.63.68,7.78,1.93v4.91c-2.08-1.51-4.84-2.49-7.67-2.49-5.82,0-9.9,4.19-9.9,9.71s4.01,9.79,10.13,9.79c2.87,0,5.55-.98,7.67-2.57v4.88c-2.23,1.36-5.18,2.04-8.01,2.04Z"/>
      <path class="st0" d="M361.57,60.5h16.32v4.23h-11.52v6.91h10.01v4.12h-10.01v7.82h11.9v4.27h-16.7v-27.35h0Z"/>
      <path class="st0" d="M390.4,84.01c2.95,0,4.8-1.25,4.8-3.63,0-1.51-.72-2.46-2.53-3.25-1.81-.79-5.29-1.44-7.59-2.68-2.34-1.25-3.7-3.21-3.7-6.35,0-5.03,3.7-8.01,9.26-8.01,2.61,0,5.78.68,8.05,1.93v4.8c-2.68-1.74-5.82-2.49-7.97-2.49-2.72,0-4.53,1.17-4.53,3.36,0,1.63.87,2.49,2.68,3.25,1.85.76,5.4,1.36,7.71,2.72,2.3,1.32,3.44,3.48,3.44,6.31,0,5.21-3.82,8.31-9.48,8.31-2.83,0-6.27-.79-8.8-2.27v-4.95c2.83,2.08,6.42,2.95,8.69,2.95h0Z"/>
    </g>
    <g>
      <path class="st0" d="M159.2,98.14h2.74l2.7,7.23c.48,1.28.94,2.56,1.4,3.88h.04c.48-1.32.96-2.6,1.46-3.92l2.74-7.19h2.6l-5.53,14.46h-2.58l-5.55-14.46Z"/>
      <path class="st0" d="M173.11,107.67c0-2.92,2.28-5.15,5.33-5.15s5.33,2.24,5.33,5.15-2.28,5.15-5.33,5.15-5.33-2.26-5.33-5.15ZM181.36,107.67c0-1.7-1.26-3.04-2.92-3.04s-2.92,1.34-2.92,3.04,1.24,3.02,2.92,3.02,2.92-1.32,2.92-3.02Z"/>
      <path class="st0" d="M185.99,102.74h1.74v-2.54l2.42-.58v3.12h2.8v2.08h-2.8v4.18c0,1.16.48,1.76,1.46,1.76.48,0,.96-.14,1.34-.3v2c-.46.22-1.2.38-1.96.38-2.2,0-3.26-1.3-3.26-3.6v-4.42h-1.74v-2.08Z"/>
      <path class="st0" d="M195.98,102.74h2.4v1.38l.04.02c.68-.96,1.7-1.5,2.88-1.5.2,0,.42.02.64.08v2.32c-.24-.06-.5-.1-.76-.1-1.2,0-2.1.5-2.78,1.46v6.21h-2.42v-9.87Z"/>
      <path class="st0" d="M209.31,112.82c-3.2,0-5.45-2-5.45-5.13s2.28-5.17,4.99-5.17c2.46,0,4.61,1.62,4.61,4.85,0,.32-.02.74-.06.98h-7.11c.28,1.64,1.58,2.46,3.28,2.46,1.2,0,2.36-.42,3.36-1.08v2.2c-.92.56-2.34.9-3.62.9ZM211.21,106.67c-.16-1.58-1.28-2.2-2.38-2.2-1.16,0-2.26.74-2.52,2.2h4.89Z"/>
      <path class="st0" d="M227.37,112.82c-3.2,0-5.45-2-5.45-5.13s2.28-5.17,4.99-5.17c2.46,0,4.61,1.62,4.61,4.85,0,.32-.02.74-.06.98h-7.11c.28,1.64,1.58,2.46,3.28,2.46,1.2,0,2.36-.42,3.36-1.08v2.2c-.92.56-2.34.9-3.62.9ZM229.27,106.67c-.16-1.58-1.28-2.2-2.38-2.2-1.16,0-2.26.74-2.52,2.2h4.89ZM225.75,101.36l1.6-3.28h2.42l-2.3,3.28h-1.72Z"/>
      <path class="st0" d="M241.57,112.03l-.04-.02c-.7.52-1.58.82-2.58.82-2.64,0-4.73-2-4.73-5.03s2.16-5.27,5.25-5.27c1.02,0,1.94.26,2.76.7l1.76-.42v14.2h-2.42v-4.97ZM239.58,104.59c-1.86,0-2.92,1.4-2.92,3.14s1.04,3.08,2.82,3.08c.86,0,1.6-.32,2.1-.74v-4.93c-.54-.32-1.24-.54-2-.54Z"/>
      <path class="st0" d="M254.54,111.73l-.04-.02c-.84.7-1.94,1.12-3.14,1.12-1.1,0-2-.34-2.66-1.04-.64-.72-.88-1.54-.88-2.92v-6.13h2.42v5.73c0,.84.14,1.36.48,1.72.34.36.86.52,1.44.52.88,0,1.72-.42,2.36-.94v-7.03h2.42v9.87h-2.4v-.88Z"/>
      <path class="st0" d="M260.49,99.52c0-.82.68-1.5,1.52-1.5s1.5.68,1.5,1.5-.68,1.5-1.5,1.5-1.52-.66-1.52-1.5ZM260.79,102.74h2.42v9.87h-2.42v-9.87Z"/>
      <path class="st0" d="M267.07,102.74h2.38v.64l.04.02c.7-.52,1.62-.88,2.7-.88,2.56,0,4.67,2,4.67,5.03s-2.2,5.27-5.11,5.27c-.86,0-1.6-.2-2.22-.52l-.04.02v4.67h-2.42v-14.26ZM271.48,110.79c1.86,0,2.94-1.34,2.94-3.12s-1.06-3.08-2.82-3.08c-.86,0-1.6.34-2.12.78v4.85c.52.32,1.24.56,2,.56Z"/>
      <path class="st0" d="M279.77,99.52c0-.82.68-1.5,1.52-1.5s1.5.68,1.5,1.5-.68,1.5-1.5,1.5-1.52-.66-1.52-1.5ZM280.07,102.74h2.42v9.87h-2.42v-9.87Z"/>
      <path class="st0" d="M291.16,112.82c-3.2,0-5.45-2-5.45-5.13s2.28-5.17,4.99-5.17c2.46,0,4.61,1.62,4.61,4.85,0,.32-.02.74-.06.98h-7.11c.28,1.64,1.58,2.46,3.28,2.46,1.2,0,2.36-.42,3.36-1.08v2.2c-.92.56-2.34.9-3.62.9ZM293.06,106.67c-.16-1.58-1.28-2.2-2.38-2.2-1.16,0-2.26.74-2.52,2.2h4.89Z"/>
      <path class="st0" d="M298.59,102.74h2.4v1.38l.04.02c.68-.96,1.7-1.5,2.88-1.5.2,0,.42.02.64.08v2.32c-.24-.06-.5-.1-.76-.1-1.2,0-2.1.5-2.78,1.46v6.21h-2.42v-9.87Z"/>
      <path class="st0" d="M317.89,112.82c-3.22,0-5.43-2.16-5.43-5.13s2.36-5.17,5.49-5.17c1.06,0,2.1.24,2.88.72v2.26c-.76-.52-1.7-.88-2.7-.88-1.94,0-3.24,1.28-3.24,3.06s1.32,3.04,3.26,3.04c1.04,0,2.08-.36,2.76-.9v2.26c-.8.52-1.94.76-3.02.76Z"/>
      <path class="st0" d="M324.28,102.74h2.4v1.38l.04.02c.68-.96,1.7-1.5,2.88-1.5.2,0,.42.02.64.08v2.32c-.24-.06-.5-.1-.76-.1-1.2,0-2.1.5-2.78,1.46v6.21h-2.42v-9.87Z"/>
      <path class="st0" d="M332.15,107.67c0-2.92,2.28-5.15,5.33-5.15s5.33,2.24,5.33,5.15-2.28,5.15-5.33,5.15-5.33-2.26-5.33-5.15ZM340.41,107.67c0-1.7-1.26-3.04-2.92-3.04s-2.92,1.34-2.92,3.04,1.24,3.02,2.92,3.02,2.92-1.32,2.92-3.02Z"/>
      <path class="st0" d="M345.72,99.52c0-.82.68-1.5,1.52-1.5s1.5.68,1.5,1.5-.68,1.5-1.5,1.5-1.52-.66-1.52-1.5ZM346.02,102.74h2.42v9.87h-2.42v-9.87Z"/>
      <path class="st0" d="M351.89,111.95v-2.24c1.24.8,2.84,1.14,3.96,1.14s1.8-.32,1.8-1.02c0-.5-.3-.76-1.14-.96-.84-.2-2.38-.42-3.32-.86-.96-.44-1.42-1.2-1.42-2.34,0-2.08,1.7-3.16,4.08-3.16,1.22,0,2.66.28,3.64.78v2.12c-1.2-.64-2.6-.94-3.6-.94s-1.7.3-1.7.98c0,.52.38.76,1.24.96.86.18,2.3.38,3.22.8.94.44,1.42,1.18,1.42,2.4,0,2.2-1.92,3.22-4.26,3.22-1.26,0-2.82-.26-3.92-.88Z"/>
      <path class="st0" d="M362.94,99.52c0-.82.68-1.5,1.52-1.5s1.5.68,1.5,1.5-.68,1.5-1.5,1.5-1.52-.66-1.52-1.5ZM363.24,102.74h2.42v9.87h-2.42v-9.87Z"/>
      <path class="st0" d="M374.33,112.82c-3.2,0-5.45-2-5.45-5.13s2.28-5.17,4.99-5.17c2.46,0,4.61,1.62,4.61,4.85,0,.32-.02.74-.06.98h-7.11c.28,1.64,1.58,2.46,3.28,2.46,1.2,0,2.36-.42,3.36-1.08v2.2c-.92.56-2.34.9-3.62.9ZM370.79,98.08h2.4l1.62,3.28h-1.72l-2.3-3.28ZM376.23,106.67c-.16-1.58-1.28-2.2-2.38-2.2-1.16,0-2.26.74-2.52,2.2h4.89Z"/>
      <path class="st0" d="M381.76,102.74h2.4v1.38l.04.02c.68-.96,1.7-1.5,2.88-1.5.2,0,.42.02.64.08v2.32c-.24-.06-.5-.1-.76-.1-1.2,0-2.1.5-2.78,1.46v6.21h-2.42v-9.87Z"/>
      <path class="st0" d="M395.09,112.82c-3.2,0-5.45-2-5.45-5.13s2.28-5.17,4.99-5.17c2.46,0,4.62,1.62,4.62,4.85,0,.32-.02.74-.06.98h-7.11c.28,1.64,1.58,2.46,3.28,2.46,1.2,0,2.36-.42,3.36-1.08v2.2c-.92.56-2.34.9-3.62.9ZM396.98,106.67c-.16-1.58-1.28-2.2-2.38-2.2-1.16,0-2.26.74-2.52,2.2h4.89Z"/>
    </g>
  </g>
</svg>